<mxfile host="app.diagrams.net" modified="2023-06-21T09:27:45.921Z" agent="Mozilla/5.0 (X11; Ubuntu; Linux x86_64; rv:109.0) Gecko/20100101 Firefox/110.0" etag="URs7g-a8oE3KeMNHXzJo" version="21.4.0" type="github">
  <diagram id="R2lEEEUBdFMjLlhIrx00" name="Page-1">
    <mxGraphModel dx="834" dy="562" grid="0" gridSize="10" guides="1" tooltips="1" connect="1" arrows="1" fold="1" page="1" pageScale="1" pageWidth="850" pageHeight="1100" math="0" shadow="0" extFonts="Permanent Marker^https://fonts.googleapis.com/css?family=Permanent+Marker">
      <root>
        <mxCell id="0" />
        <mxCell id="1" parent="0" />
        <mxCell id="PP841xs0gl-aUpexz3vX-5" value="" style="edgeStyle=orthogonalEdgeStyle;rounded=0;orthogonalLoop=1;jettySize=auto;html=1;" edge="1" parent="1" source="PP841xs0gl-aUpexz3vX-1" target="PP841xs0gl-aUpexz3vX-3">
          <mxGeometry relative="1" as="geometry" />
        </mxCell>
        <mxCell id="PP841xs0gl-aUpexz3vX-6" style="edgeStyle=orthogonalEdgeStyle;rounded=0;orthogonalLoop=1;jettySize=auto;html=1;" edge="1" parent="1" source="PP841xs0gl-aUpexz3vX-1" target="PP841xs0gl-aUpexz3vX-2">
          <mxGeometry relative="1" as="geometry" />
        </mxCell>
        <mxCell id="PP841xs0gl-aUpexz3vX-1" value="start8.bat" style="rounded=0;whiteSpace=wrap;html=1;" vertex="1" parent="1">
          <mxGeometry x="356" y="1465" width="120" height="60" as="geometry" />
        </mxCell>
        <mxCell id="PP841xs0gl-aUpexz3vX-7" value="" style="edgeStyle=orthogonalEdgeStyle;rounded=0;orthogonalLoop=1;jettySize=auto;html=1;" edge="1" parent="1" source="PP841xs0gl-aUpexz3vX-2" target="PP841xs0gl-aUpexz3vX-4">
          <mxGeometry relative="1" as="geometry" />
        </mxCell>
        <mxCell id="PP841xs0gl-aUpexz3vX-2" value="mkfbpm.bat" style="rounded=0;whiteSpace=wrap;html=1;" vertex="1" parent="1">
          <mxGeometry x="270" y="1648" width="120" height="60" as="geometry" />
        </mxCell>
        <mxCell id="PP841xs0gl-aUpexz3vX-3" value="fbPRISM.bat" style="rounded=0;whiteSpace=wrap;html=1;" vertex="1" parent="1">
          <mxGeometry x="442" y="1648" width="120" height="60" as="geometry" />
        </mxCell>
        <mxCell id="PP841xs0gl-aUpexz3vX-4" value="mkBDDDEF.bat" style="rounded=0;whiteSpace=wrap;html=1;" vertex="1" parent="1">
          <mxGeometry x="270" y="1811" width="120" height="60" as="geometry" />
        </mxCell>
      </root>
    </mxGraphModel>
  </diagram>
</mxfile>
